# xmcd
#
# Track frame offsets:
#	150
#	9795
#	20295
#	33143
#	45481
#	57174
#	66594
#	79082
#	91697
#	104710
#	116905
#	129798
#	143238
#	155043
#	166728
#	181113
#	194021
#	206066
#	219259
#	229497
#	240845
#	255485
#	268655
#	282365
#
# Disc length: 3918 seconds
#
# Revision: 0
# Processed by: cddbd v1.5.2PL0 Copyright (c) Steve Scherf et al.
# Submitted via: audiograbber 1.83.01
#
DISCID=470f4c18
DTITLE=Mel Tillis - 24 Greatest Hits
DYEAR=1977
DGENRE=Country
TTITLE0=I Ain't Never
TTITLE1=Neon Rose
TTITLE2=Brand New Mister Me
TTITLE3=Commercial Affection
TTITLE4=Heaven Everydayy
TTITLE5=Take My Hand
TTITLE6=Midnight, Me And The Blues
TTITLE7=Don't Let Go
TTITLE8=Best Way I Know How
TTITLE9=Mental Revege
TTITLE10=Woman In The Back Of My Mind
TTITLE11=Ruby, Don't Take Your Love To Town
TTITLE12=Sawmill
TTITLE13=Arms Of A Fool
TTITLE14=Storms Never Last
TTITLE15=Memory Maker
TTITLE16=Living And Learning
TTITLE17=Heart Over Mind
TTITLE18=Would You Want The World to End
TTITLE19=Stomp Them Grapes
TTITLE20=You Are The One
TTITLE21=Lookin' For Tommorrow ( And Findin' Yesterday )
TTITLE22=Borrowed Angle
TTITLE23=Untouched
EXTD=
EXTT0=
EXTT1=
EXTT2=
EXTT3=
EXTT4=
EXTT5=
EXTT6=
EXTT7=
EXTT8=
EXTT9=
EXTT10=
EXTT11=
EXTT12=
EXTT13=
EXTT14=
EXTT15=
EXTT16=
EXTT17=
EXTT18=
EXTT19=
EXTT20=
EXTT21=
EXTT22=
EXTT23=
PLAYORDER=
